<svg version="1.1" xmlns="http://www.w3.org/2000/svg" viewBox="0 0 980.1666666666669 420" width="980.1666666666669" height="420">
  <!-- svg-source:excalidraw -->
  
  <defs>
    <style>
      @font-face {
        font-family: "Virgil";
        src: url("https://excalidraw.com/Virgil.woff2");
      }
      @font-face {
        font-family: "Cascadia";
        src: url("https://excalidraw.com/Cascadia.woff2");
      }
    </style>
  </defs>
  <g stroke-linecap="round" transform="translate(144.16666666666666 125) rotate(0 103.00000000000003 24)"><path d="M136.07 0.72 C149.86 1.35, 163.98 4.49, 174.64 7.11 C185.29 9.74, 194.85 13.03, 200 16.47 C205.15 19.9, 207.43 24.31, 205.54 27.72 C203.65 31.13, 197.03 34.07, 188.67 36.95 C180.32 39.82, 168.35 43.14, 155.4 44.97 C142.45 46.8, 126.06 47.63, 110.98 47.93 C95.89 48.23, 78.99 48.17, 64.88 46.76 C50.77 45.35, 36.35 42.22, 26.3 39.47 C16.25 36.72, 8.81 33.6, 4.58 30.25 C0.35 26.89, -1.61 22.75, 0.94 19.36 C3.5 15.97, 10.98 12.54, 19.91 9.91 C28.84 7.27, 41.28 5.33, 54.53 3.54 C67.79 1.76, 84.38 -0.69, 99.45 -0.8 C114.52 -0.91, 136.18 2.12, 144.94 2.88 C153.71 3.65, 152.89 3.58, 152.05 3.8 M149.34 1.89 C162.78 3.03, 176.21 5.75, 185.27 8.75 C194.34 11.76, 201.12 16.32, 203.75 19.93 C206.38 23.53, 205.08 27.01, 201.04 30.39 C197.01 33.77, 189.15 37.77, 179.55 40.21 C169.96 42.66, 157.55 43.58, 143.46 45.04 C129.37 46.5, 110.14 48.83, 95.03 48.97 C79.92 49.1, 65.82 47.7, 52.78 45.86 C39.75 44.02, 25.34 40.8, 16.82 37.92 C8.31 35.03, 3.64 32.1, 1.71 28.56 C-0.21 25.01, 0.96 20.22, 5.29 16.64 C9.62 13.05, 17.12 9.53, 27.71 7.05 C38.3 4.57, 54.62 2.69, 68.84 1.77 C83.06 0.85, 99.56 1.49, 113.01 1.51 C126.45 1.53, 143.49 1.38, 149.5 1.87 C155.51 2.36, 149.54 4.01, 149.06 4.44" stroke="#000000" stroke-width="1" fill="none"></path></g><g transform="translate(120.16666666666666 10) rotate(0 141.5 25)"><text x="0" y="18" font-family="Virgil, Segoe UI Emoji" font-size="20px" fill="#000000" text-anchor="start" style="white-space: pre;" direction="ltr">git add notebook.ipynb</text><text x="0" y="43" font-family="Virgil, Segoe UI Emoji" font-size="20px" fill="#000000" text-anchor="start" style="white-space: pre;" direction="ltr">git commit -m "add notebook"</text></g><g transform="translate(164.16666666666666 136.5) rotate(0 87 12.5)"><text x="87" y="18" font-family="Virgil, Segoe UI Emoji" font-size="20px" fill="#000000" text-anchor="middle" style="white-space: pre;" direction="ltr">nbconvert_rename</text></g><g stroke-linecap="round" transform="translate(452.16666666666663 129) rotate(0 259.0000000000001 20.5)"><path d="M0.59 0.03 C154.65 -2.5, 310.3 -2.01, 518.26 0.25 M-0.14 0.14 C196.41 0.33, 392.97 0.49, 517.69 -0.3 M516.78 0.96 C517.65 14.04, 519.19 27.9, 516.37 42.44 M517.81 0.01 C519.32 15.9, 518.05 31.43, 517.5 40.88 M517.32 41.02 C392 41.72, 267.27 40.94, -0.75 41.54 M518.12 41.19 C331.83 39.77, 145.04 39.34, -0.06 41.18 M-0.52 39.99 C0.52 29.58, 2.26 14.02, -0.98 -0.74 M0.6 40.8 C0.16 30.53, 0.51 20.81, -0.68 -0.74" stroke="#000000" stroke-width="1" fill="none"></path></g><g transform="translate(483.66666666666663 139) rotate(0 223 12.5)"><text x="223" y="18" font-family="Virgil, Segoe UI Emoji" font-size="20px" fill="#000000" text-anchor="middle" style="white-space: pre;" direction="ltr">2021101_notebook_INSERTCOMMITHASH.html</text></g><g stroke-linecap="round" transform="translate(146.16666666666666 192) rotate(0 103.00000000000003 24)"><path d="M56.26 2.96 C68.43 1.06, 86.82 -0.43, 101.84 -0.61 C116.86 -0.79, 132.77 0.39, 146.38 1.9 C160 3.41, 174.01 5.74, 183.52 8.45 C193.03 11.15, 200.1 14.74, 203.45 18.12 C206.81 21.51, 207.25 25.16, 203.65 28.74 C200.05 32.32, 191.59 36.85, 181.85 39.61 C172.1 42.37, 158.91 43.84, 145.19 45.31 C131.47 46.79, 114.56 48.47, 99.54 48.47 C84.52 48.48, 68.24 47.05, 55.08 45.35 C41.93 43.65, 29.66 41.02, 20.61 38.29 C11.56 35.55, 3.41 32.27, 0.79 28.94 C-1.84 25.61, 0.48 21.85, 4.85 18.32 C9.23 14.78, 17.66 10.28, 27.02 7.73 C36.37 5.19, 54.33 4.04, 60.97 3.04 C67.61 2.03, 66.2 1.59, 66.84 1.72 M97.42 -1.23 C111.8 -1.82, 128.98 -0.53, 142.89 1.24 C156.8 3, 171.16 6.83, 180.9 9.36 C190.64 11.88, 197.29 13.01, 201.33 16.37 C205.36 19.73, 207.64 25.97, 205.1 29.5 C202.57 33.03, 195.33 34.79, 186.12 37.56 C176.9 40.33, 163.26 44.35, 149.8 46.13 C136.34 47.91, 120.53 48.53, 105.37 48.22 C90.2 47.92, 72.7 45.73, 58.82 44.3 C44.94 42.86, 31.45 42.35, 22.11 39.59 C12.76 36.84, 5.71 31.4, 2.74 27.78 C-0.22 24.17, 0.91 21.09, 4.31 17.92 C7.71 14.74, 13.46 11.14, 23.14 8.74 C32.82 6.34, 50.11 5.08, 62.37 3.51 C74.63 1.94, 90.98 -0.04, 96.69 -0.69 C102.39 -1.35, 96.58 -0.88, 96.58 -0.4" stroke="#000000" stroke-width="1" fill="none"></path></g><g transform="translate(200.16666666666666 203.5) rotate(0 49 12.5)"><text x="49" y="18" font-family="Virgil, Segoe UI Emoji" font-size="20px" fill="#000000" text-anchor="middle" style="white-space: pre;" direction="ltr">nbstripout</text></g><g stroke-linecap="round" transform="translate(453.16666666666663 196.5) rotate(0 134.5 20.5)"><path d="M0.22 -0.52 C82.17 2.49, 164.58 1.04, 268.75 -0.55 M-0.44 0.32 C89.69 -0.61, 180.9 -0.45, 268.59 -0.48 M270.41 0.21 C267.34 15.72, 270.73 30.4, 269.95 40.63 M268.67 -0.37 C268.89 12.23, 268.81 24.39, 269.26 40.15 M270.2 39.8 C186.3 42.52, 107.48 42.53, -0.98 41.46 M269.04 40.28 C175.65 41.67, 82.73 40.61, 0.71 40.8 M1.89 40.55 C-1.01 30.04, -1.26 19.31, -0.38 1.21 M0.26 40.37 C-0.65 28.77, 0.85 18.7, 0.87 0.85" stroke="#000000" stroke-width="1" fill="none"></path></g><g transform="translate(473.16666666666663 205) rotate(0 118 12.5)"><text x="0" y="18" font-family="Virgil, Segoe UI Emoji" font-size="20px" fill="#000000" text-anchor="start" style="white-space: pre;" direction="ltr">notebook.ipynb (stripped)</text></g><g stroke-linecap="round" transform="translate(454.16666666666663 272.5) rotate(0 178.5000000000001 20.5)"><path d="M0.41 0.39 C74.24 -0.03, 146.24 0.31, 357.46 -0.61 M-0.5 -0.48 C107.75 -1.28, 214.69 -1.32, 357.31 -0.04 M355.37 1.44 C359.04 14.54, 358.24 25.02, 357.02 42.89 M356.5 -0.12 C356.29 12.02, 357.13 23.79, 357.02 40.58 M355.81 41.86 C242.99 40.13, 126.65 39.64, 0.59 42.02 M356.9 41.28 C244.7 38.33, 132.69 38.75, -0.32 41.05 M-0.98 40.26 C-1.62 23.67, -0.77 10.05, -0.4 -0.18 M-0.68 40.26 C0.71 32.21, 0.77 22.92, -0.66 0.73" stroke="#000000" stroke-width="1" fill="none"></path></g><g transform="translate(467.66666666666663 281.5) rotate(0 162 12.5)"><text x="162" y="18" font-family="Virgil, Segoe UI Emoji" font-size="20px" fill="#000000" text-anchor="middle" style="white-space: pre;" direction="ltr">20211101_notebook_eac9e43.html</text></g><g stroke-linecap="round" transform="translate(142.16666666666666 269) rotate(0 103.00000000000003 24)"><path d="M72.19 0.64 C85.42 -0.75, 103.26 -0.77, 118.2 -0.3 C133.15 0.17, 149.56 1.31, 161.87 3.46 C174.17 5.61, 184.81 9.51, 192.05 12.62 C199.29 15.73, 204.42 18.59, 205.3 22.13 C206.17 25.66, 203.09 30.46, 197.3 33.81 C191.51 37.15, 181.73 39.95, 170.56 42.2 C159.39 44.45, 144.98 46.28, 130.26 47.29 C115.54 48.3, 97.04 48.81, 82.25 48.27 C67.46 47.72, 53.33 46.31, 41.53 44.03 C29.72 41.75, 18.34 37.72, 11.42 34.58 C4.5 31.44, 0.24 28.72, 0.02 25.18 C-0.21 21.63, 3.62 16.74, 10.07 13.33 C16.52 9.91, 25.69 6.96, 38.71 4.69 C51.73 2.41, 77.17 0.33, 88.19 -0.33 C99.21 -0.98, 104.7 0.25, 104.83 0.75 M80.33 -0.87 C94.16 -1.96, 113.98 0.69, 129 1.62 C144.01 2.55, 158.96 2.48, 170.41 4.72 C181.86 6.95, 191.59 11.61, 197.71 15.02 C203.82 18.44, 207.78 22.03, 207.11 25.2 C206.43 28.37, 201.08 30.88, 193.66 34.05 C186.23 37.22, 174.8 42.16, 162.55 44.21 C150.29 46.26, 134.78 45.93, 120.15 46.32 C105.52 46.72, 89.4 47.37, 74.75 46.6 C60.09 45.83, 43.32 43.81, 32.25 41.72 C21.17 39.63, 13.65 37.48, 8.29 34.06 C2.92 30.63, -0.93 25.07, 0.06 21.17 C1.05 17.28, 6.54 13.62, 14.25 10.68 C21.95 7.74, 34.91 5.28, 46.26 3.54 C57.62 1.8, 76.47 0.83, 82.39 0.23 C88.3 -0.36, 81.5 -0.32, 81.77 -0.04" stroke="#000000" stroke-width="1" fill="none"></path></g><g transform="translate(162.16666666666666 280.5) rotate(0 87 12.5)"><text x="87" y="18" font-family="Virgil, Segoe UI Emoji" font-size="20px" fill="#000000" text-anchor="middle" style="white-space: pre;" direction="ltr">nbconvert_rename</text></g><g transform="translate(157.16666666666666 385) rotate(0 92.5 12.5)"><text x="0" y="18" font-family="Virgil, Segoe UI Emoji" font-size="20px" fill="#000000" text-anchor="start" style="white-space: pre;" direction="ltr">git push origin main</text></g><g stroke-linecap="round"><g transform="translate(242.16666666666666 72) rotate(0 0.3402188882883763 20.48292163515464)"><path d="M-0.19 -0.42 C0.06 6.6, 2.06 34.46, 2.43 41.42 M-1.75 -1.69 C-1.71 5.55, 1.2 35.33, 1.71 42.66" stroke="#000000" stroke-width="1" fill="none"></path></g><g transform="translate(242.16666666666666 72) rotate(0 0.3402188882883763 20.48292163515464)"><path d="M-7.81 24.28 C-4.85 30.85, -1.66 38.89, 0.15 41.15 M-7.72 24.05 C-4.3 30.16, -0.55 36.61, 0.89 43.38" stroke="#000000" stroke-width="1" fill="none"></path></g><g transform="translate(242.16666666666666 72) rotate(0 0.3402188882883763 20.48292163515464)"><path d="M6.52 23.08 C4.04 30.08, 1.79 38.58, 0.15 41.15 M6.61 22.85 C5.19 29.29, 4.09 36.15, 0.89 43.38" stroke="#000000" stroke-width="1" fill="none"></path></g></g><g stroke-linecap="round"><g transform="translate(246.16666666666666 332) rotate(0 0.3634188857302121 22.583033082820464)"><path d="M-0.42 0.43 C-0.23 7.8, 0.3 36.67, 0.42 44.01 M1.56 -0.39 C1.61 7.2, -0.44 38.42, -0.83 45.56" stroke="#000000" stroke-width="1" fill="none"></path></g><g transform="translate(246.16666666666666 332) rotate(0 0.3634188857302121 22.583033082820464)"><path d="M-6.39 23.5 C-5.62 28.4, -3.32 32.99, -2.33 46.31 M-6.62 24.4 C-5.58 30.4, -4.02 34.07, -0.11 46.44" stroke="#000000" stroke-width="1" fill="none"></path></g><g transform="translate(246.16666666666666 332) rotate(0 0.3634188857302121 22.583033082820464)"><path d="M8.63 24.4 C5.82 29.03, 4.54 33.41, -2.33 46.31 M8.4 25.3 C5.76 30.99, 3.61 34.44, -0.11 46.44" stroke="#000000" stroke-width="1" fill="none"></path></g></g><g stroke-linecap="round"><g transform="translate(346.16666666666674 147.83049879533996) rotate(0 50.60392845413642 0.8003051277959514)"><path d="M0.43 -0.58 C17.46 -0.34, 85 0.77, 102.01 0.99 M-0.81 1.73 C16.09 2.15, 83.94 2.2, 101.07 2.17" stroke="#000000" stroke-width="1" fill="none"></path></g><g transform="translate(346.16666666666674 147.83049879533996) rotate(0 50.60392845413642 0.8003051277959514)"><path d="M71.92 12.45 C79.81 10.24, 87.38 4.99, 101.83 1.1 M72.82 12.53 C80.63 9.86, 86.09 7.93, 101.95 3.1" stroke="#000000" stroke-width="1" fill="none"></path></g><g transform="translate(346.16666666666674 147.83049879533996) rotate(0 50.60392845413642 0.8003051277959514)"><path d="M71.92 -8.07 C79.74 -4.45, 87.31 -3.86, 101.83 1.1 M72.82 -7.99 C80.51 -5.58, 85.97 -2.42, 101.95 3.1" stroke="#000000" stroke-width="1" fill="none"></path></g></g><g stroke-linecap="round"><g transform="translate(357.16666666666663 215) rotate(0 43.37378551917152 1.8535724974982486)"><path d="M-0.58 0.01 C13.65 0.73, 70.75 4.18, 84.97 4.73 M1.32 -1.02 C15.98 -0.71, 73.03 2, 87.33 2.87" stroke="#000000" stroke-width="1" fill="none"></path></g><g transform="translate(357.16666666666663 215) rotate(0 43.37378551917152 1.8535724974982486)"><path d="M58.66 10.51 C67.02 7.89, 72.29 7.88, 86.25 1.82 M58.73 12.34 C65.56 8.74, 73.04 8.34, 88.25 3.34" stroke="#000000" stroke-width="1" fill="none"></path></g><g transform="translate(357.16666666666663 215) rotate(0 43.37378551917152 1.8535724974982486)"><path d="M59.74 -9.98 C67.89 -7.18, 72.87 -1.76, 86.25 1.82 M59.81 -8.15 C66.48 -6.85, 73.7 -2.35, 88.25 3.34" stroke="#000000" stroke-width="1" fill="none"></path></g></g><g stroke-linecap="round"><g transform="translate(352.51803402995563 286.1946736411005) rotate(0 47.85162500122004 1.8296409761827874)"><path d="M0.01 -0.67 C16.13 -0.03, 81.19 2.39, 97.14 3.28 M-1.44 1.59 C14.53 2.41, 79.85 4.17, 96.45 4.33" stroke="#000000" stroke-width="1" fill="none"></path></g><g transform="translate(352.51803402995563 286.1946736411005) rotate(0 47.85162500122004 1.8296409761827874)"><path d="M66.94 14.85 C76.08 9.26, 87.92 6.44, 95.41 3.11 M68.77 14.13 C77.14 11.34, 88.72 8.17, 96.93 4.15" stroke="#000000" stroke-width="1" fill="none"></path></g><g transform="translate(352.51803402995563 286.1946736411005) rotate(0 47.85162500122004 1.8296409761827874)"><path d="M67.35 -5.67 C76.25 -4.37, 87.96 -0.31, 95.41 3.11 M69.18 -6.39 C77.39 -2.03, 88.83 1.94, 96.93 4.15" stroke="#000000" stroke-width="1" fill="none"></path></g></g><g transform="translate(11.5 139.66666666666606) rotate(0 60.5 10)"><text x="0" y="14" font-family="Virgil, Segoe UI Emoji" font-size="16px" fill="#495057" text-anchor="start" style="white-space: pre;" direction="ltr">pre-commit hook</text></g><g transform="translate(11 205.66666666666606) rotate(0 60.5 10)"><text x="0" y="14" font-family="Virgil, Segoe UI Emoji" font-size="16px" fill="#495057" text-anchor="start" style="white-space: pre;" direction="ltr">pre-commit hook</text></g><g transform="translate(10 279.66666666666606) rotate(0 66 10)"><text x="0" y="14" font-family="Virgil, Segoe UI Emoji" font-size="16px" fill="#495057" text-anchor="start" style="white-space: pre;" direction="ltr">post-commit hook</text></g><g transform="translate(342.66666666666663 117) rotate(0 50 10)"><text x="0" y="14" font-family="Virgil, Segoe UI Emoji" font-size="16px" fill="#495057" text-anchor="start" style="white-space: pre;" direction="ltr">if not exists</text></g><g stroke-linecap="round"><g transform="translate(247.16666666666666 174) rotate(0 0.4928258493170148 7.389031806048024)"><path d="M0.45 -0.65 C0.5 1.88, -0.65 11.68, -0.63 14.27 M-0.77 1.63 C-0.24 4.38, 1.61 13, 1.75 15.42" stroke="#495057" stroke-width="1" fill="none"></path></g></g><g stroke-linecap="round"><g transform="translate(247.16666666666666 243) rotate(0 0.9880906679304786 12.975281160697335)"><path d="M-0.65 -0.63 C-0.45 3.73, 0.01 22.12, 0.27 26.58 M1.22 1.66 C1.88 5.62, 2.78 20.45, 2.6 24.76" stroke="#495057" stroke-width="1" fill="none"></path></g></g></svg>